<svg width="24" height="24" viewBox="0 0 24 24" fill="none" xmlns="http://www.w3.org/2000/svg">
    <path d="M9.5 20.3333H14.5C15.8833 20.3333 17 19.2166 17 17.8333V6.16663C17 4.78329 15.8833 3.66663 14.5 3.66663H9.5C8.11667 3.66663 7 4.78329 7 6.16663V17.8333C7 19.2166 8.11667 20.3333 9.5 20.3333Z" fill="#B2B2B2"/>
    <path d="M5.74984 6.94168V17.0583C5.74984 17.325 5.50817 17.5167 5.24984 17.4667C4.0165 17.2417 3.6665 16.525 3.6665 14.775V9.22501C3.6665 7.47501 4.0165 6.75834 5.24984 6.53334C5.50817 6.48334 5.74984 6.67501 5.74984 6.94168Z" fill="#B2B2B2"/>
    <path d="M20.3333 9.22501V14.775C20.3333 16.525 19.9833 17.2417 18.75 17.4667C18.4917 17.5167 18.25 17.3167 18.25 17.0583V6.94168C18.25 6.67501 18.4917 6.48334 18.75 6.53334C19.9833 6.75834 20.3333 7.47501 20.3333 9.22501Z" fill="#B2B2B2"/>
</svg>
