<svg width="24" height="24" viewBox="0 0 24 24" fill="none" xmlns="http://www.w3.org/2000/svg">
    <path d="M16.1665 10.3333H17.8332C19.4998 10.3333 20.3332 9.49996 20.3332 7.83329V6.16663C20.3332 4.49996 19.4998 3.66663 17.8332 3.66663H16.1665C14.4998 3.66663 13.6665 4.49996 13.6665 6.16663V7.83329C13.6665 9.49996 14.4998 10.3333 16.1665 10.3333Z" stroke="#B2B2B2" stroke-width="1.5" stroke-miterlimit="10" stroke-linecap="round" stroke-linejoin="round"/>
    <path d="M6.1665 20.3333H7.83317C9.49984 20.3333 10.3332 19.5 10.3332 17.8333V16.1666C10.3332 14.5 9.49984 13.6666 7.83317 13.6666H6.1665C4.49984 13.6666 3.6665 14.5 3.6665 16.1666V17.8333C3.6665 19.5 4.49984 20.3333 6.1665 20.3333Z" stroke="#B2B2B2" stroke-width="1.5" stroke-miterlimit="10" stroke-linecap="round" stroke-linejoin="round"/>
    <path d="M6.99984 10.3333C8.84079 10.3333 10.3332 8.84091 10.3332 6.99996C10.3332 5.15901 8.84079 3.66663 6.99984 3.66663C5.15889 3.66663 3.6665 5.15901 3.6665 6.99996C3.6665 8.84091 5.15889 10.3333 6.99984 10.3333Z" stroke="#B2B2B2" stroke-width="1.5" stroke-miterlimit="10" stroke-linecap="round" stroke-linejoin="round"/>
    <path d="M16.9998 20.3333C18.8408 20.3333 20.3332 18.8409 20.3332 17C20.3332 15.159 18.8408 13.6666 16.9998 13.6666C15.1589 13.6666 13.6665 15.159 13.6665 17C13.6665 18.8409 15.1589 20.3333 16.9998 20.3333Z" stroke="#B2B2B2" stroke-width="1.5" stroke-miterlimit="10" stroke-linecap="round" stroke-linejoin="round"/>
</svg>
