<svg width="24" height="24" viewBox="0 0 24 24" fill="none" xmlns="http://www.w3.org/2000/svg">
    <path d="M12.2852 2C12.5788 2.00025 12.7251 2.32118 12.7949 2.64062C13.8945 6.89747 17.3284 10.3275 20.9883 11.4824C21.2821 11.5575 21.5762 11.7177 21.5762 11.9961C21.5761 12.3165 21.282 12.4757 20.9883 12.5518C17.3284 13.6728 13.8945 17.0943 12.7949 21.3594C12.7251 21.6788 12.5788 21.9998 12.2852 22C12.0303 22 11.8824 21.6789 11.8125 21.3594C10.7588 17.2412 7.48392 13.9027 3.9668 12.6758L3.75488 12.0059L3.7373 12.0654L3.88477 12.6475C3.78654 12.6141 3.68838 12.5817 3.58984 12.5518C3.29403 12.4758 3.00012 12.3166 3 11.9961C3 11.7525 3.22506 11.5994 3.47949 11.5146L3.58789 11.4824H3.58984C7.23961 10.3275 10.715 6.90577 11.8125 2.64062L11.8213 2.64258L12.3018 2.74707L12.3428 2.75586L12.3037 2.74707L12.7793 2.64355L12.7939 2.63965L12.3018 2.74707L12.2852 2.74316L11.8125 2.64062C11.8824 2.32124 12.0305 2 12.2852 2ZM12.7949 21.3594L12.7783 21.3555L12.3037 21.252L12.7949 21.3594ZM12.3018 5.60547C10.9398 8.38077 8.69128 10.6471 6.16406 12.0068C8.69797 13.3505 10.9451 15.6172 12.3037 18.3896C13.6577 15.6203 15.8873 13.3552 18.417 12.0088C15.8887 10.6469 13.6564 8.37651 12.3018 5.60547ZM3.9668 12.6758C3.93945 12.6662 3.91214 12.6567 3.88477 12.6475L3.7373 12.0654L3.75488 12.0059L3.9668 12.6758ZM3.59082 11.4893L3.74121 11.9609L3.58984 11.4824L3.59082 11.4893Z" fill="black"/>
</svg>
