<svg width="32" height="32" viewBox="0 0 32 32" fill="none" xmlns="http://www.w3.org/2000/svg">
    <path d="M3.66101 14.7976C3.71879 14.7678 3.7766 14.7395 3.83294 14.7126C4.81231 14.2444 5.80468 13.806 6.79561 13.3676C6.84905 13.3676 6.93859 13.3035 6.98915 13.2827C7.0657 13.2484 7.14228 13.2156 7.21883 13.1813L7.65941 12.9859C7.95409 12.8562 8.2473 12.7265 8.54198 12.5967C9.12989 12.3373 9.7178 12.0778 10.3057 11.8169C11.4815 11.298 12.6588 10.7776 13.8346 10.2587C15.0105 9.73981 16.1877 9.21942 17.3635 8.70052C18.5394 8.18162 19.7166 7.66122 20.8925 7.14232C22.0683 6.62342 23.2456 6.10303 24.4214 5.58413C24.6828 5.46782 24.966 5.29486 25.2462 5.24416C25.4816 5.20092 25.7113 5.11742 25.9482 5.07119C26.3974 4.98322 26.8929 4.94743 27.3234 5.13978C27.4721 5.20688 27.6094 5.30082 27.7235 5.41862C28.2695 5.97629 28.1929 6.89182 28.0774 7.67613C27.2728 13.1425 26.4682 18.6103 25.6622 24.0767C25.5524 24.8267 25.4022 25.6498 24.8287 26.124C24.3434 26.5251 23.6529 26.5698 23.0534 26.3998C22.4539 26.2283 21.9253 25.869 21.4067 25.5156C19.2558 24.0454 17.1035 22.5752 14.9527 21.1049C14.4413 20.756 13.8722 20.2997 13.878 19.666C13.8809 19.2843 14.1019 18.9443 14.3272 18.6416C16.1964 16.1247 18.8933 14.395 20.8997 11.9943C21.1828 11.6559 21.4053 11.0445 21.0167 10.8492C20.7856 10.7329 20.5198 10.8909 20.3089 11.0415C17.6568 12.9427 15.0061 14.8453 12.354 16.7465C11.4888 17.3668 10.5816 18.005 9.53871 18.157C8.60556 18.2942 7.66664 18.0258 6.76383 17.7515C6.00691 17.5218 5.25142 17.2862 4.49883 17.0432C4.09871 16.915 3.68558 16.7763 3.37645 16.4855C3.06733 16.1948 2.88968 15.7057 3.07602 15.318C3.19303 15.0749 3.41982 14.9214 3.65816 14.7961L3.66101 14.7976Z" fill="white"/>
</svg>