<svg width="75" height="40" viewBox="0 0 75 40" fill="none" xmlns="http://www.w3.org/2000/svg">
    <path fill-rule="evenodd" clip-rule="evenodd" d="M23.4205 11.065C23.395 11.1817 23.3418 11.2987 23.2345 11.2987C23.1415 11.2987 23.0875 11.1817 23.0621 11.065C22.6638 9.50849 21.3965 8.25679 20.0616 7.85069C19.9536 7.82295 19.8464 7.76483 19.8464 7.64783C19.8464 7.54621 19.9536 7.48771 20.0616 7.46034C21.3935 7.03886 22.6616 5.79017 23.0621 4.23361C23.0875 4.11699 23.1415 4 23.2345 4C23.3418 4 23.395 4.11699 23.4205 4.23361C23.8217 5.78717 25.0748 7.03886 26.4104 7.46034C26.5177 7.48771 26.6249 7.54621 26.6249 7.64783C26.6249 7.76483 26.5177 7.82295 26.4104 7.85069C25.0748 8.25982 23.8217 9.50849 23.4205 11.065ZM9.81546 28C16.4605 28 19.1429 23.6232 19.1429 19.4219V7.60471H14.4987V14.2329C13.5785 12.8672 11.6843 11.674 8.7198 11.674C4.63501 11.677 0.753418 14.7436 0.753418 19.7725C0.753418 24.801 4.70251 28 9.81247 28H9.81546ZM36.2104 28C41.5736 28 45.4443 24.801 45.4443 19.831C45.4443 14.8606 41.5736 11.674 36.2104 11.674C30.8462 11.674 26.9759 14.8573 26.9759 19.831C26.9759 24.8044 30.8575 28 36.2104 28ZM66.7061 11.677H66.7087C70.4316 11.6781 74.2462 13.6839 74.2462 18.9176V27.6126H69.5877V19.7478C69.5877 17.4071 67.8802 16.2447 66.2403 16.2447C64.6 16.2447 62.8776 17.4071 62.8776 19.7478V27.6126H58.234V19.7478C58.234 17.4071 56.54 16.2447 54.8713 16.2447C53.2038 16.2447 51.5093 17.4071 51.5093 19.7478V27.6126H46.8654V18.9176C46.8654 13.6824 50.6681 11.677 54.3913 11.677C56.98 11.677 59.569 12.9568 60.5573 15.6447C61.5449 12.9576 64.132 11.6781 66.7061 11.677ZM20.9135 27.6093V12.0677H25.5578V27.6093H20.9135ZM9.98717 23.654C7.21249 23.654 5.41119 22.0393 5.41119 19.8306C5.41119 17.6224 7.21249 16.0231 9.98717 16.0231C12.7626 16.0231 14.5774 17.6377 14.5774 19.8306C14.5774 22.0239 12.7769 23.654 9.98717 23.654ZM36.2104 23.654C33.4207 23.654 31.6336 22.0393 31.6336 19.831C31.6336 17.6224 33.4207 16.0231 36.2104 16.0231C38.9993 16.0231 40.7865 17.6377 40.7865 19.831C40.7865 22.0239 38.9993 23.654 36.2104 23.654Z" fill="black"/>
</svg>
